<svg xmlns="http://www.w3.org/2000/svg" xmlns:xlink="http://www.w3.org/1999/xlink" width="1000" zoomAndPan="magnify" viewBox="0 0 750 187.499995" height="250" preserveAspectRatio="xMidYMid meet" version="1.0"><defs><g/></defs><g fill="#db4a2b" fill-opacity="1"><g transform="translate(6.400961, 132.716789)"><g><path d="M 8.625 0 L 8.625 -73.671875 L 34.046875 -73.671875 L 34.046875 -63.046875 L 34.328125 -63.046875 C 34.515625 -63.429688 34.820312 -63.910156 35.25 -64.484375 C 35.6875 -65.054688 36.625 -66.0625 38.0625 -67.5 C 39.5 -68.9375 41.03125 -70.226562 42.65625 -71.375 C 44.28125 -72.53125 46.382812 -73.5625 48.96875 -74.46875 C 51.5625 -75.375 54.195312 -75.828125 56.875 -75.828125 C 59.65625 -75.828125 62.382812 -75.441406 65.0625 -74.671875 C 67.738281 -73.910156 69.703125 -73.148438 70.953125 -72.390625 L 72.96875 -71.234375 L 62.328125 -49.6875 C 59.171875 -52.375 54.769531 -53.71875 49.125 -53.71875 C 46.0625 -53.71875 43.425781 -53.046875 41.21875 -51.703125 C 39.019531 -50.359375 37.460938 -48.726562 36.546875 -46.8125 C 35.640625 -44.90625 34.992188 -43.28125 34.609375 -41.9375 C 34.234375 -40.59375 34.046875 -39.539062 34.046875 -38.78125 L 34.046875 0 Z M 8.625 0 "/></g></g></g><g fill="#000000" fill-opacity="1"><g transform="translate(65.727935, 132.716789)"><g><path d="M 83.15625 -33.328125 L 29.734375 -33.328125 C 29.734375 -28.148438 31.40625 -24.316406 34.75 -21.828125 C 38.101562 -19.335938 41.742188 -18.09375 45.671875 -18.09375 C 49.785156 -18.09375 53.039062 -18.644531 55.4375 -19.75 C 57.832031 -20.851562 60.5625 -23.03125 63.625 -26.28125 L 82.015625 -17.09375 C 74.347656 -4.257812 61.613281 2.15625 43.8125 2.15625 C 32.695312 2.15625 23.164062 -1.648438 15.21875 -9.265625 C 7.269531 -16.878906 3.296875 -26.046875 3.296875 -36.765625 C 3.296875 -47.492188 7.269531 -56.6875 15.21875 -64.34375 C 23.164062 -72 32.695312 -75.828125 43.8125 -75.828125 C 55.488281 -75.828125 64.988281 -72.453125 72.3125 -65.703125 C 79.632812 -58.953125 83.296875 -49.304688 83.296875 -36.765625 C 83.296875 -35.046875 83.25 -33.898438 83.15625 -33.328125 Z M 30.453125 -47.390625 L 58.453125 -47.390625 C 57.878906 -51.222656 56.367188 -54.164062 53.921875 -56.21875 C 51.484375 -58.28125 48.351562 -59.3125 44.53125 -59.3125 C 40.3125 -59.3125 36.957031 -58.207031 34.46875 -56 C 31.976562 -53.800781 30.640625 -50.929688 30.453125 -47.390625 Z M 30.453125 -47.390625 "/></g></g></g><g fill="#000000" fill-opacity="1"><g transform="translate(140.111617, 132.716789)"><g><path d="M 13.640625 -9.109375 C 6.742188 -16.628906 3.296875 -25.847656 3.296875 -36.765625 C 3.296875 -47.679688 6.742188 -56.921875 13.640625 -64.484375 C 20.535156 -72.046875 29.296875 -75.828125 39.921875 -75.828125 C 49.691406 -75.828125 57.738281 -72.765625 64.0625 -66.640625 L 64.0625 -73.671875 L 89.484375 -73.671875 L 89.484375 0 L 64.34375 0 L 64.34375 -8.328125 L 64.0625 -8.328125 C 57.738281 -1.335938 49.691406 2.15625 39.921875 2.15625 C 29.296875 2.15625 20.535156 -1.597656 13.640625 -9.109375 Z M 35.265625 -49.25 C 31.960938 -46 30.3125 -41.835938 30.3125 -36.765625 C 30.3125 -31.691406 31.890625 -27.550781 35.046875 -24.34375 C 38.203125 -21.132812 42.367188 -19.53125 47.546875 -19.53125 C 52.523438 -19.53125 56.613281 -21.15625 59.8125 -24.40625 C 63.019531 -27.664062 64.625 -31.785156 64.625 -36.765625 C 64.625 -41.835938 62.972656 -46 59.671875 -49.25 C 56.367188 -52.507812 52.328125 -54.140625 47.546875 -54.140625 C 42.660156 -54.140625 38.566406 -52.507812 35.265625 -49.25 Z M 35.265625 -49.25 "/></g></g></g><g fill="#000000" fill-opacity="1"><g transform="translate(225.983633, 132.716789)"><g><path d="M 8.625 0 L 8.625 -123.515625 L 34.046875 -123.515625 L 34.046875 0 Z M 8.625 0 "/></g></g></g><g fill="#000000" fill-opacity="1"><g transform="translate(256.424415, 132.716789)"><g/></g></g><g fill="#db4a2b" fill-opacity="1"><g transform="translate(283.427775, 132.716789)"><g><path d="M 8.625 0 L 8.625 -73.671875 L 34.046875 -73.671875 L 34.046875 -63.046875 L 34.328125 -63.046875 C 34.515625 -63.429688 34.820312 -63.910156 35.25 -64.484375 C 35.6875 -65.054688 36.625 -66.0625 38.0625 -67.5 C 39.5 -68.9375 41.03125 -70.226562 42.65625 -71.375 C 44.28125 -72.53125 46.382812 -73.5625 48.96875 -74.46875 C 51.5625 -75.375 54.195312 -75.828125 56.875 -75.828125 C 59.65625 -75.828125 62.382812 -75.441406 65.0625 -74.671875 C 67.738281 -73.910156 69.703125 -73.148438 70.953125 -72.390625 L 72.96875 -71.234375 L 62.328125 -49.6875 C 59.171875 -52.375 54.769531 -53.71875 49.125 -53.71875 C 46.0625 -53.71875 43.425781 -53.046875 41.21875 -51.703125 C 39.019531 -50.359375 37.460938 -48.726562 36.546875 -46.8125 C 35.640625 -44.90625 34.992188 -43.28125 34.609375 -41.9375 C 34.234375 -40.59375 34.046875 -39.539062 34.046875 -38.78125 L 34.046875 0 Z M 8.625 0 "/></g></g></g><g fill="#000000" fill-opacity="1"><g transform="translate(342.754749, 132.716789)"><g><path d="M 13.640625 -9.109375 C 6.742188 -16.628906 3.296875 -25.847656 3.296875 -36.765625 C 3.296875 -47.679688 6.742188 -56.921875 13.640625 -64.484375 C 20.535156 -72.046875 29.296875 -75.828125 39.921875 -75.828125 C 49.691406 -75.828125 57.738281 -72.765625 64.0625 -66.640625 L 64.0625 -73.671875 L 89.484375 -73.671875 L 89.484375 0 L 64.34375 0 L 64.34375 -8.328125 L 64.0625 -8.328125 C 57.738281 -1.335938 49.691406 2.15625 39.921875 2.15625 C 29.296875 2.15625 20.535156 -1.597656 13.640625 -9.109375 Z M 35.265625 -49.25 C 31.960938 -46 30.3125 -41.835938 30.3125 -36.765625 C 30.3125 -31.691406 31.890625 -27.550781 35.046875 -24.34375 C 38.203125 -21.132812 42.367188 -19.53125 47.546875 -19.53125 C 52.523438 -19.53125 56.613281 -21.15625 59.8125 -24.40625 C 63.019531 -27.664062 64.625 -31.785156 64.625 -36.765625 C 64.625 -41.835938 62.972656 -46 59.671875 -49.25 C 56.367188 -52.507812 52.328125 -54.140625 47.546875 -54.140625 C 42.660156 -54.140625 38.566406 -52.507812 35.265625 -49.25 Z M 35.265625 -49.25 "/></g></g></g><g fill="#000000" fill-opacity="1"><g transform="translate(428.626765, 132.716789)"><g><path d="M 12.921875 -73.671875 L 12.921875 -101.109375 L 38.34375 -101.109375 L 38.34375 -73.671875 L 53.859375 -73.671875 L 53.859375 -54.296875 L 38.34375 -54.296875 L 38.34375 -30.875 C 38.34375 -24.082031 40.257812 -20.6875 44.09375 -20.6875 C 45.050781 -20.6875 46.054688 -20.875 47.109375 -21.25 C 48.160156 -21.632812 48.972656 -22.019531 49.546875 -22.40625 L 50.40625 -22.984375 L 56.734375 -2.4375 C 51.273438 0.625 45.050781 2.15625 38.0625 2.15625 C 33.269531 2.15625 29.148438 1.316406 25.703125 -0.359375 C 22.253906 -2.035156 19.644531 -4.285156 17.875 -7.109375 C 16.101562 -9.929688 14.832031 -12.898438 14.0625 -16.015625 C 13.300781 -19.128906 12.921875 -22.457031 12.921875 -26 L 12.921875 -54.296875 L 2.296875 -54.296875 L 2.296875 -73.671875 Z M 12.921875 -73.671875 "/></g></g></g><g fill="#000000" fill-opacity="1"><g transform="translate(473.140775, 132.716789)"><g><path d="M 11.0625 -114.75 C 14.03125 -117.71875 17.570312 -119.203125 21.6875 -119.203125 C 25.800781 -119.203125 29.34375 -117.71875 32.3125 -114.75 C 35.28125 -111.78125 36.765625 -108.238281 36.765625 -104.125 C 36.765625 -100.007812 35.28125 -96.46875 32.3125 -93.5 C 29.34375 -90.53125 25.800781 -89.046875 21.6875 -89.046875 C 17.570312 -89.046875 14.03125 -90.53125 11.0625 -93.5 C 8.09375 -96.46875 6.609375 -100.007812 6.609375 -104.125 C 6.609375 -108.238281 8.09375 -111.78125 11.0625 -114.75 Z M 8.625 -73.671875 L 8.625 0 L 34.046875 0 L 34.046875 -73.671875 Z M 8.625 -73.671875 "/></g></g></g><g fill="#000000" fill-opacity="1"><g transform="translate(504.299595, 132.716789)"><g><path d="M 8.625 0 L 8.625 -73.671875 L 34.046875 -73.671875 L 34.046875 -65.921875 L 34.328125 -65.921875 C 40.929688 -72.523438 47.96875 -75.828125 55.4375 -75.828125 C 59.070312 -75.828125 62.6875 -75.347656 66.28125 -74.390625 C 69.875 -73.441406 73.320312 -71.957031 76.625 -69.9375 C 79.925781 -67.925781 82.601562 -65.078125 84.65625 -61.390625 C 86.71875 -57.710938 87.75 -53.429688 87.75 -48.546875 L 87.75 0 L 62.328125 0 L 62.328125 -41.65625 C 62.328125 -45.476562 61.109375 -48.828125 58.671875 -51.703125 C 56.234375 -54.578125 53.050781 -56.015625 49.125 -56.015625 C 45.289062 -56.015625 41.816406 -54.53125 38.703125 -51.5625 C 35.597656 -48.59375 34.046875 -45.289062 34.046875 -41.65625 L 34.046875 0 Z M 8.625 0 "/></g></g></g><g fill="#000000" fill-opacity="1"><g transform="translate(587.012293, 132.716789)"><g><path d="M 5.3125 18.09375 L 26.140625 7.90625 C 29.972656 14.21875 36.628906 17.375 46.109375 17.375 C 50.503906 17.375 54.59375 15.960938 58.375 13.140625 C 62.164062 10.316406 64.0625 5.984375 64.0625 0.140625 L 64.0625 -5.3125 C 59.5625 -0.332031 51.515625 2.15625 39.921875 2.15625 C 29.296875 2.15625 20.535156 -1.597656 13.640625 -9.109375 C 6.742188 -16.628906 3.296875 -25.847656 3.296875 -36.765625 C 3.296875 -47.679688 6.742188 -56.921875 13.640625 -64.484375 C 20.535156 -72.046875 29.296875 -75.828125 39.921875 -75.828125 C 49.398438 -75.828125 57.300781 -72.910156 63.625 -67.078125 L 64.0625 -67.078125 L 64.0625 -73.671875 L 89.484375 -73.671875 L 89.484375 2.015625 C 89.484375 13.984375 85.507812 23.222656 77.5625 29.734375 C 69.613281 36.242188 59.128906 39.5 46.109375 39.5 C 25.035156 39.5 11.4375 32.363281 5.3125 18.09375 Z M 35.265625 -49.25 C 31.960938 -46 30.3125 -41.835938 30.3125 -36.765625 C 30.3125 -31.691406 31.890625 -27.550781 35.046875 -24.34375 C 38.203125 -21.132812 42.367188 -19.53125 47.546875 -19.53125 C 52.523438 -19.53125 56.613281 -21.15625 59.8125 -24.40625 C 63.019531 -27.664062 64.625 -31.785156 64.625 -36.765625 C 64.625 -41.835938 62.972656 -46 59.671875 -49.25 C 56.367188 -52.507812 52.328125 -54.140625 47.546875 -54.140625 C 42.660156 -54.140625 38.566406 -52.507812 35.265625 -49.25 Z M 35.265625 -49.25 "/></g></g></g><g fill="#000000" fill-opacity="1"><g transform="translate(672.884309, 132.716789)"><g><path d="M 40.640625 -75.828125 C 44.859375 -75.828125 49.023438 -75.347656 53.140625 -74.390625 C 57.253906 -73.441406 60.316406 -72.488281 62.328125 -71.53125 L 65.34375 -70.09375 L 57.015625 -53.421875 C 51.273438 -56.492188 45.816406 -58.03125 40.640625 -58.03125 C 37.773438 -58.03125 35.742188 -57.71875 34.546875 -57.09375 C 33.347656 -56.46875 32.75 -55.296875 32.75 -53.578125 C 32.75 -53.191406 32.796875 -52.804688 32.890625 -52.421875 C 32.984375 -52.035156 33.171875 -51.675781 33.453125 -51.34375 C 33.742188 -51.007812 34.007812 -50.722656 34.25 -50.484375 C 34.488281 -50.242188 34.894531 -49.976562 35.46875 -49.6875 C 36.050781 -49.40625 36.507812 -49.191406 36.84375 -49.046875 C 37.175781 -48.898438 37.722656 -48.679688 38.484375 -48.390625 C 39.253906 -48.109375 39.832031 -47.894531 40.21875 -47.75 C 40.601562 -47.613281 41.25 -47.398438 42.15625 -47.109375 C 43.0625 -46.816406 43.753906 -46.625 44.234375 -46.53125 C 47.203125 -45.664062 49.785156 -44.707031 51.984375 -43.65625 C 54.191406 -42.601562 56.515625 -41.164062 58.953125 -39.34375 C 61.398438 -37.53125 63.289062 -35.234375 64.625 -32.453125 C 65.96875 -29.679688 66.640625 -26.523438 66.640625 -22.984375 C 66.640625 -6.222656 55.003906 2.15625 31.734375 2.15625 C 26.472656 2.15625 21.472656 1.34375 16.734375 -0.28125 C 11.992188 -1.914062 8.570312 -3.546875 6.46875 -5.171875 L 3.296875 -7.75 L 13.640625 -25.140625 C 14.410156 -24.460938 15.414062 -23.671875 16.65625 -22.765625 C 17.90625 -21.859375 20.15625 -20.613281 23.40625 -19.03125 C 26.664062 -17.445312 29.492188 -16.65625 31.890625 -16.65625 C 37.148438 -16.65625 39.78125 -18.425781 39.78125 -21.96875 C 39.78125 -23.601562 39.109375 -24.875 37.765625 -25.78125 C 36.429688 -26.6875 34.160156 -27.710938 30.953125 -28.859375 C 27.742188 -30.015625 25.226562 -31.070312 23.40625 -32.03125 C 18.8125 -34.425781 15.171875 -37.128906 12.484375 -40.140625 C 9.804688 -43.160156 8.46875 -47.160156 8.46875 -52.140625 C 8.46875 -59.609375 11.363281 -65.421875 17.15625 -69.578125 C 22.957031 -73.742188 30.785156 -75.828125 40.640625 -75.828125 Z M 40.640625 -75.828125 "/></g></g></g></svg>